<?xml version="1.0" standalone="no"?>
<!DOCTYPE svg PUBLIC "-//W3C//DTD SVG 20010904//EN"
 "http://www.w3.org/TR/2001/REC-SVG-20010904/DTD/svg10.dtd">
<svg version="1.0" xmlns="http://www.w3.org/2000/svg"
 width="150.000000pt" height="150.000000pt" viewBox="0 0 150.000000 150.000000"
 preserveAspectRatio="xMidYMid meet">
<metadata>
Created by potrace 1.11, written by Peter Selinger 2001-2013
</metadata>
<g transform="translate(0.000000,150.000000) scale(0.100000,-0.100000)"
fill="#000000" stroke="none">
<path d="M115 1481 c-48 -22 -79 -54 -100 -103 -13 -32 -15 -117 -15 -630 0
-555 2 -596 19 -633 22 -48 54 -79 103 -100 32 -13 117 -15 630 -15 555 0 596
2 633 19 48 22 79 54 100 103 23 56 23 1200 0 1256 -21 49 -52 81 -100 103
-37 17 -78 19 -635 19 -557 0 -598 -2 -635 -19z m999 -413 c4 -51 9 -105 12
-120 5 -24 2 -28 -19 -28 -21 0 -26 7 -36 44 -15 59 -47 95 -96 106 -22 5 -93
10 -157 10 l-118 0 0 -146 0 -146 68 7 c115 11 137 29 144 115 2 28 8 36 26
38 l22 3 0 -196 0 -196 -22 3 c-18 2 -24 10 -26 38 -7 86 -28 102 -149 115
l-63 6 0 -113 c0 -207 14 -223 190 -222 170 0 206 18 235 119 9 28 18 40 31
40 17 0 19 -7 16 -73 -2 -40 -7 -94 -11 -120 l-6 -47 -398 -3 -397 -2 0 24 c0
21 6 26 38 31 70 11 100 31 111 72 7 22 11 151 11 311 0 310 -4 332 -64 357
-20 8 -49 15 -66 15 -25 0 -30 4 -30 25 l0 25 374 0 374 0 6 -92z"/>
</g>
</svg>
